<?xml version="1.0" encoding="utf-8"?>
<!-- Svg Vector Icons : http://www.onlinewebfonts.com/icon -->
<!DOCTYPE svg PUBLIC "-//W3C//DTD SVG 1.1//EN" "http://www.w3.org/Graphics/SVG/1.1/DTD/svg11.dtd">
<svg version="1.1" xmlns="http://www.w3.org/2000/svg" xmlns:xlink="http://www.w3.org/1999/xlink" x="0px" y="0px" viewBox="0 0 256 256" enable-background="new 0 0 256 256" xml:space="preserve">
<metadata> Svg Vector Icons : http://www.onlinewebfonts.com/icon </metadata>
<g><g><g><path fill="#000000" d="M107.7,6c-0.1,0.8-0.2,12.3-0.1,25.6l0.1,24.3l10.3,0.1l10.3,0.1l10.1-10.3l10.1-10.3l-0.1-11c0-6-0.1-13-0.1-15.4l0-4.4h-20.2h-20.1L107.7,6z M143.3,20l0.1,10.2l-2.5,0.2c-1.4,0.1-6,0.2-10.3,0.1l-7.7-0.1l0.1,7.7c0.1,4.2,0,8.9-0.1,10.2l-0.2,2.6h-5.1h-5V30.3V9.7h15.3l15.3,0L143.3,20z M141.5,35.7c0,0-3,3.1-6.7,6.8l-6.7,6.7v-6.9v-6.8h6.7C138.5,35.5,141.5,35.6,141.5,35.7z"/><path fill="#000000" d="M79.1,40.1L56.5,52.8l-0.1,3l-0.1,2.9l2.1-1.2c1.2-0.7,11.3-6.4,22.5-12.6s20.7-11.7,21-12c0.4-0.3,0.4-1.3,0.2-3l-0.3-2.5L79.1,40.1z"/><path fill="#000000" d="M153.7,30c0.2,1.5,0.5,3,0.7,3.1c0.2,0.2,9.5,5.5,20.8,11.8c11.3,6.3,21.4,11.9,22.5,12.6l2.1,1.2l-0.1-2.9l-0.1-3l-22.4-12.5c-12.3-6.9-22.7-12.7-23.1-12.8C153.5,27.2,153.4,27.7,153.7,30z"/><path fill="#000000" d="M10,71.5v25.7h10.5H31l10-10.3l10-10.3V61.2V45.9H30.5H10V71.5z M45.8,51.8c0.3,1,0.3,10.3,0,15.9l-0.2,4H35.5H25.4v10.1v10.1l-4,0.3c-2.2,0.2-4.5,0.2-5.2,0.1l-1.2-0.1l-0.1-20.6l-0.1-20.6h15.4C44.4,50.9,45.6,51,45.8,51.8z M39,81.6c-2.6,2.9-5.7,6.1-6.8,7.1l-2,1.9v-7.1v-7.1H37h6.8L39,81.6z"/><path fill="#000000" d="M205.1,81.8v25.5l10.7,0h10.7l9.8-10.2L246,87V71.6V56.2h-20.5h-20.5V81.8z M241.2,71.4v10.4h-10.4h-10.4v10.4v10.4l-5.2-0.1l-5.2-0.1L210,82c0-11.1,0-20.4,0.2-20.6c0.1-0.2,7.1-0.3,15.6-0.3h15.4V71.4z M238.8,86.9c0,0.3-12.5,13.3-13.1,13.5c-0.4,0.1-0.5-12.8-0.1-13.4C225.8,86.6,238.8,86.5,238.8,86.9z"/><path fill="#000000" d="M76.8,126.2c0,21.5,0.1,39.9,0.1,40.9l0,1.8h51.2h51.2l2.6-9.3c1.4-5.1,4.6-16.4,7.1-25.1c2.5-8.7,4.5-16.5,4.5-17.3s-0.6-2.6-1.3-4c-1.8-3.6-4-4.9-9.2-5.5l-4.2-0.5l0.3-4c0.1-2.2,0.1-4.4,0-5c-0.2-0.9-0.9-0.9-30.9-0.9h-30.6l-5.1-5.1l-5.1-5.1H92.1H76.7L76.8,126.2z M110.3,97l5.1,5.1h29.4l29.4,0v2.7v2.7h-36.5l-36.6,0l-2.2,1.1c-1.3,0.6-2.7,1.8-3.3,2.6c-0.6,0.8-3.9,10.5-7.5,21.5l-6.4,20l0-30.5V91.9h11.7h11.7L110.3,97z M186.2,113.4c0.6,0.4,1.4,1.5,1.8,2.4c0.6,1.4,0.5,2.2-1.9,10.6c-1.4,5-4.3,15.5-6.5,23.4l-4,14.4h-45.9c-25.2,0-45.9-0.1-45.9-0.3c0-0.1,3.5-11.3,7.7-24.7c6.4-20.1,7.9-24.6,8.9-25.5l1.3-1.1h41.8C181.2,112.6,185.2,112.7,186.2,113.4z"/><path fill="#000000" d="M138.5,118.4c-4.2,1.1-8.8,4.2-11.5,7.9c-1.3,1.8-1.4,1.8-4.6,2c-5.6,0.2-10,2.9-12.7,7.8c-1.3,2.4-1.5,2.5-3.8,2.7c-2.8,0.3-5.2,1.8-6.9,4.4c-3.1,4.9-1.5,11.5,3.6,14.3l2.2,1.2l27.5,0.1c19.6,0.1,28,0,29.4-0.4c7.7-2.1,9.9-11.8,4-17.1c-1.6-1.4-1.7-1.7-1.9-5.1c-0.4-6.8-4.7-12.9-11.2-16.1c-3.1-1.5-4.1-1.8-7.8-1.9C142.2,118,139.5,118.1,138.5,118.4z M149.8,124.3c3.1,1.4,6.1,4.3,7.6,7.5c0.9,1.7,1.2,3.2,1.3,6.5l0.1,4.3l2.1,1.3c2.4,1.5,3.5,3.5,3,5.7c-0.3,1.5-2.7,3.9-4,4c-2.6,0.2-50.4,0.3-52.3,0c-3.3-0.3-5.1-2.2-5.1-5c0-4,2.2-5.6,6.7-5.1l2.7,0.3l0.9-2.7c0.5-1.7,1.6-3.5,2.8-4.8c2.6-2.9,5.2-3.6,10.3-2.9l2.4,0.3l1.3-2.4c1.3-2.4,4.5-5.7,6.6-6.9C140.3,122.4,145.4,122.3,149.8,124.3z"/><path fill="#000000" d="M25.4,122.9v20.5h2.4h2.4v-20.5v-20.5h-2.4h-2.4V122.9z"/><path fill="#000000" d="M229.4,111.6c-0.5,0.5-1.5,1-2.3,1h-1.3V128v15.4h2.4h2.4V127c0-9-0.1-16.4-0.1-16.4C230.3,110.7,229.9,111.1,229.4,111.6z"/><path fill="#000000" d="M10,174.2v25.5h10.5h10.5l9.9-10.3l9.9-10.2V164v-15.3H30.5H10V174.2z M45.8,163.9l0,10.1l-10.2,0.1l-10.3,0.1v10.4v10.4h-5.3h-5.3v-20.7v-20.7l15.5,0.1l15.5,0.1V163.9L45.8,163.9z M41.9,179.4l1.8,0.3l-6.7,6.7l-6.7,6.7v-6.8c0-3.7,0.1-6.9,0.2-7C30.8,179.1,40.1,179.1,41.9,179.4z"/><path fill="#000000" d="M205.1,174.2v25.5l10.7,0h10.7l9.8-10.2l9.7-10.1v-15.4v-15.4h-20.5h-20.5V174.2z M241.2,163.9v10.4h-10.4h-10.4v10.4v10.4h-5h-5l-0.3-1.8c-0.3-2-0.2-38.7,0-39.3c0.1-0.2,7.1-0.3,15.6-0.3h15.4V163.9z M238.8,179.4c0,0.3-12.6,13.3-13,13.5c-0.6,0.2-0.6-12.5,0-13.2c0.4-0.5,2.1-0.6,6.7-0.5C236,179.2,238.8,179.3,238.8,179.4z"/><path fill="#000000" d="M44.1,193.8c-0.9,1-1.4,1.8-1.2,1.9c0.3,0.1,13.6,7.6,29.6,16.5l29.1,16.3l0.4-1.9c0.2-1.1,0.2-2.4,0-2.9c-0.4-0.9-54.6-31.6-55.8-31.6C46.1,192.1,45.1,192.8,44.1,193.8z"/><path fill="#000000" d="M176.9,210.1l-22.6,12.7l-0.1,3l-0.1,2.9l2.1-1.2c1.2-0.7,11.3-6.4,22.5-12.6c11.3-6.3,20.7-11.6,20.9-11.8c0.2-0.2,0.3-1.5,0.2-3l-0.1-2.6L176.9,210.1z"/><path fill="#000000" d="M107.7,200c-0.1,0-0.2,49.4,0,50.2c0.2,1.1,0.2,1.1,10.5,1.1h10.3l8.1-8.3c4.5-4.5,9-9.2,9.9-10.4l1.8-2v-11.9c0-6.5,0-13.4,0-15.3l0-3.4H128C116.9,200,107.8,200,107.7,200z M143.4,215.4v10.4h-10.1h-10.1l0,3c0,1.7-0.1,6.3-0.1,10.2l0,7.2l-5.2,0.2l-5.2,0.1v-20.7v-20.7H128h15.4V215.4z M135.9,236.5c-3.1,3.3-6.2,6.5-6.8,7.1l-1.1,1.2v-7.1v-7.1h6.8h6.8L135.9,236.5z"/></g></g></g>
</svg>